<svg width="20" height="25" viewBox="0 0 20 25" fill="none" xmlns="http://www.w3.org/2000/svg">
<path d="M16.5015 13.249C16.5342 16.8742 19.5908 18.0805 19.6246 18.0959C19.5987 18.1809 19.1362 19.815 18.0143 21.5028C17.0444 22.9621 16.0378 24.416 14.4521 24.446C12.8941 24.4756 12.393 23.495 10.6117 23.495C8.83084 23.495 8.27419 24.416 6.79926 24.4756C5.26867 24.5353 4.10311 22.8977 3.12525 21.4438C1.1269 18.4698 -0.400217 13.04 1.65032 9.37475C2.66896 7.55456 4.48946 6.40203 6.46531 6.37247C7.96829 6.34298 9.38698 7.41338 10.3058 7.41338C11.224 7.41338 12.948 6.12614 14.7603 6.31517C15.519 6.3477 17.6488 6.6306 19.0163 8.69125C18.906 8.76157 16.4751 10.2184 16.5015 13.2491M13.5733 4.34763C14.386 3.33506 14.9328 1.92554 14.7836 0.522949C13.6123 0.571406 12.196 1.32645 11.3558 2.33841C10.6029 3.23464 9.94348 4.669 10.1214 6.04378C11.427 6.14778 12.7606 5.36081 13.5733 4.34763Z" fill="black"/>
</svg>
