<svg width="23" height="30" viewBox="0 0 23 30" fill="none" xmlns="http://www.w3.org/2000/svg">
<rect x="3.80469" y="0.689453" width="14.8684" height="27.6621" rx="4.67263" fill="white"/>
<path d="M12.2777 7.40714L14.758 9.88756L12.2791 12.3659L12.2777 7.40714ZM12.2777 22.5908L14.758 20.1109L12.2791 17.632L12.2777 22.5908ZM9.62936 14.999L4.2674 9.6233L5.82158 8.06956L10.093 12.343V2.10206L17.8613 9.86976L12.7321 14.999L17.8623 20.1296L10.0936 27.8975V17.6559L5.82106 21.9298L4.2668 20.3751L9.62936 14.999ZM11.0659 30C17.6163 30 22.1297 26.888 22.1297 14.9994C22.1297 3.11138 17.6163 0 11.0659 0C4.51584 0 0 3.1119 0 14.9994C0 26.8881 4.51541 30 11.0659 30Z" fill="#0060A9"/>
</svg>
