<svg width="24" height="24" viewBox="0 0 24 24" fill="none" xmlns="http://www.w3.org/2000/svg">
<path d="M20.3429 7.25252C19.3564 11.2493 18.5383 14.5536 18.5143 14.5901C18.4902 14.6265 17.9729 14.4078 17.3594 14.092C14.4962 12.6099 10.5504 11.5652 6.31579 11.1764C4.5594 11.0185 2.77895 11.0185 2.21353 11.1764C1.53985 11.3708 0.745865 12.1483 0.348872 13.0229C0.0120301 13.764 0 13.849 0 15.6713C0 17.7486 0.132331 18.3925 0.986466 20.6521C1.3594 21.6482 1.52782 21.9155 2.15338 22.5472C3.00752 23.4097 3.70526 23.7256 5.23308 23.9321C9.02256 24.4545 15.7474 21.8912 18.9353 18.7205C20.3188 17.3477 20.1865 17.7365 22.1955 8.61312C23.194 4.11826 24 0.340151 24 0.218668C24 0.0242958 23.8797 0 23.0617 0H22.1353L20.3429 7.25252ZM9.80451 14.335V14.6994H6.91729H4.03008V14.335V13.9705H6.91729H9.80451V14.335ZM13.8947 16.1572V16.5216H8.96241H4.03008V16.1572V15.7927H8.96241H13.8947V16.1572ZM12.6917 17.9794V18.3439H8.3609H4.03008V17.9794V17.615H8.3609H12.6917V17.9794ZM10.1654 19.8017V20.1661H7.09774H4.03008V19.8017V19.4372H7.09774H10.1654V19.8017ZM6.55639 21.6847V22.1098H5.29323H4.03008V21.6847V21.2595H5.29323H6.55639V21.6847Z" fill="white"/>
</svg>
