<svg width="18" height="14" viewBox="0 0 18 14" fill="none" xmlns="http://www.w3.org/2000/svg">
<path d="M2.74751 0H14.5984C15.3237 0 16.0193 0.288131 16.5322 0.801008C17.045 1.31389 17.3332 2.0095 17.3332 2.73481V10.9393C17.3332 11.6646 17.045 12.3602 16.5322 12.8731C16.0193 13.3859 15.3237 13.6741 14.5984 13.6741H2.74751C2.02219 13.6741 1.32658 13.3859 0.813704 12.8731C0.300827 12.3602 0.0126953 11.6646 0.0126953 10.9393V2.73481C0.0126953 2.0095 0.300827 1.31389 0.813704 0.801008C1.32658 0.288131 2.02219 0 2.74751 0ZM2.74751 0.911604C2.29171 0.911604 1.8906 1.06658 1.58065 1.34006L8.67294 5.92543L15.7652 1.34006C15.4553 1.06658 15.0542 0.911604 14.5984 0.911604H2.74751ZM8.67294 7.02847L1.04281 2.07846C0.96988 2.27901 0.9243 2.50691 0.9243 2.73481V10.9393C0.9243 11.4228 1.11639 11.8865 1.45831 12.2285C1.80022 12.5704 2.26396 12.7625 2.74751 12.7625H14.5984C15.0819 12.7625 15.5457 12.5704 15.8876 12.2285C16.2295 11.8865 16.4216 11.4228 16.4216 10.9393V2.73481C16.4216 2.50691 16.376 2.27901 16.3031 2.07846L8.67294 7.02847Z" fill="#E5E5E5"/>
</svg>
