<svg width="20" height="20" viewBox="0 0 20 20" fill="none" xmlns="http://www.w3.org/2000/svg">
<mask id="mask0_1_3998" style="mask-type:luminance" maskUnits="userSpaceOnUse" x="0" y="0" width="20" height="20">
<path d="M19.3013 8.67416H10.0807V12.3768H15.3882C14.8934 14.7291 12.8244 16.0795 10.0807 16.0795C6.84217 16.0795 4.2334 13.5529 4.2334 10.4166C4.2334 7.28022 6.84217 4.75371 10.0807 4.75371C11.475 4.75371 12.7344 5.23288 13.7239 6.01697L16.6026 3.22909C14.8484 1.74802 12.5995 0.833252 10.0807 0.833252C4.59323 0.833252 0.185303 5.10219 0.185303 10.4166C0.185303 15.731 4.59323 19.9999 10.0807 19.9999C15.0283 19.9999 19.5262 16.5151 19.5262 10.4166C19.5262 9.8503 19.4363 9.24045 19.3013 8.67416Z" fill="white"/>
</mask>
<g mask="url(#mask0_1_3998)">
<path d="M-0.714355 16.0794V4.75366L6.93205 10.4165L-0.714355 16.0794Z" fill="#FBBC05"/>
</g>
<mask id="mask1_1_3998" style="mask-type:luminance" maskUnits="userSpaceOnUse" x="0" y="0" width="20" height="20">
<path d="M19.3013 8.67416H10.0807V12.3768H15.3882C14.8934 14.7291 12.8244 16.0795 10.0807 16.0795C6.84217 16.0795 4.2334 13.5529 4.2334 10.4166C4.2334 7.28022 6.84217 4.75371 10.0807 4.75371C11.475 4.75371 12.7344 5.23288 13.7239 6.01697L16.6026 3.22909C14.8484 1.74802 12.5995 0.833252 10.0807 0.833252C4.59323 0.833252 0.185303 5.10219 0.185303 10.4166C0.185303 15.731 4.59323 19.9999 10.0807 19.9999C15.0283 19.9999 19.5262 16.5151 19.5262 10.4166C19.5262 9.8503 19.4363 9.24045 19.3013 8.67416Z" fill="white"/>
</mask>
<g mask="url(#mask1_1_3998)">
<path d="M-0.714355 4.75358L6.93205 10.4165L10.0806 7.75927L20.8755 6.0604V-0.0380859H-0.714355V4.75358Z" fill="#EA4335"/>
</g>
<mask id="mask2_1_3998" style="mask-type:luminance" maskUnits="userSpaceOnUse" x="0" y="0" width="20" height="20">
<path d="M19.3013 8.67416H10.0807V12.3768H15.3882C14.8934 14.7291 12.8244 16.0795 10.0807 16.0795C6.84217 16.0795 4.2334 13.5529 4.2334 10.4166C4.2334 7.28022 6.84217 4.75371 10.0807 4.75371C11.475 4.75371 12.7344 5.23288 13.7239 6.01697L16.6026 3.22909C14.8484 1.74802 12.5995 0.833252 10.0807 0.833252C4.59323 0.833252 0.185303 5.10219 0.185303 10.4166C0.185303 15.731 4.59323 19.9999 10.0807 19.9999C15.0283 19.9999 19.5262 16.5151 19.5262 10.4166C19.5262 9.8503 19.4363 9.24045 19.3013 8.67416Z" fill="white"/>
</mask>
<g mask="url(#mask2_1_3998)">
<path d="M-0.714355 16.0793L12.7793 6.0604L16.3326 6.496L20.8755 -0.0380859V20.871H-0.714355V16.0793Z" fill="#34A853"/>
</g>
<mask id="mask3_1_3998" style="mask-type:luminance" maskUnits="userSpaceOnUse" x="0" y="0" width="20" height="20">
<path d="M19.3013 8.67416H10.0807V12.3768H15.3882C14.8934 14.7291 12.8244 16.0795 10.0807 16.0795C6.84217 16.0795 4.2334 13.5529 4.2334 10.4166C4.2334 7.28022 6.84217 4.75371 10.0807 4.75371C11.475 4.75371 12.7344 5.23288 13.7239 6.01697L16.6026 3.22909C14.8484 1.74802 12.5995 0.833252 10.0807 0.833252C4.59323 0.833252 0.185303 5.10219 0.185303 10.4166C0.185303 15.731 4.59323 19.9999 10.0807 19.9999C15.0283 19.9999 19.5262 16.5151 19.5262 10.4166C19.5262 9.8503 19.4363 9.24045 19.3013 8.67416Z" fill="white"/>
</mask>
<g mask="url(#mask3_1_3998)">
<path d="M20.8754 20.8711L6.93197 10.4165L5.13281 9.10972L20.8754 4.75366V20.8711Z" fill="#4285F4"/>
</g>
</svg>
