<svg width="19" height="20" viewBox="0 0 19 20" fill="none" xmlns="http://www.w3.org/2000/svg">
<path d="M9.5 2C13.9184 2 17.5 5.58159 17.5 10C17.5 14.4184 13.9184 18 9.5 18C5.08159 18 1.5 14.4184 1.5 10C1.5 5.58159 5.08159 2 9.5 2ZM9.5 4.40039C8.01479 4.40039 6.59024 4.98984 5.54004 6.04004C4.48984 7.09024 3.90039 8.51479 3.90039 10C3.90039 11.4852 4.48984 12.9098 5.54004 13.96C6.59024 15.0102 8.01479 15.5996 9.5 15.5996C10.9852 15.5996 12.4098 15.0102 13.46 13.96C14.5102 12.9098 15.0996 11.4852 15.0996 10C15.0996 8.51479 14.5102 7.09024 13.46 6.04004C12.4098 4.98984 10.9852 4.40039 9.5 4.40039Z" stroke="#111111"/>
<path d="M9.5 18.5C14.1946 18.5 18 14.6946 18 10C18 5.30545 14.1946 1.5 9.5 1.5C4.80545 1.5 1 5.30545 1 10C1 14.6946 4.80545 18.5 9.5 18.5Z" stroke="#111111" stroke-width="1.5" stroke-miterlimit="10" stroke-linejoin="round"/>
<path d="M9.50002 15.1C10.8526 15.1 12.1498 14.5627 13.1063 13.6063C14.0627 12.6498 14.6 11.3526 14.6 10C14.6 8.64742 14.0627 7.35022 13.1063 6.39378C12.1498 5.43734 10.8526 4.90002 9.50002 4.90002C8.14742 4.90002 6.85022 5.43734 5.89378 6.39378C4.93734 7.35022 4.40002 8.64742 4.40002 10C4.40002 11.3526 4.93734 12.6498 5.89378 13.6063C6.85022 14.5627 8.14742 15.1 9.50002 15.1Z" stroke="#111111" stroke-width="1.5" stroke-miterlimit="10" stroke-linejoin="round"/>
<path d="M9.50005 11.7C9.95092 11.7 10.3833 11.5209 10.7021 11.2021C11.0209 10.8833 11.2 10.4509 11.2 9.99999C11.2 9.54912 11.0209 9.11672 10.7021 8.79791C10.3833 8.47909 9.95092 8.29999 9.50005 8.29999C9.04918 8.29999 8.61678 8.47909 8.29797 8.79791C7.97916 9.11672 7.80005 9.54912 7.80005 9.99999C7.80005 10.4509 7.97916 10.8833 8.29797 11.2021C8.61678 11.5209 9.04918 11.7 9.50005 11.7Z" stroke="#111111" stroke-width="1.5" stroke-miterlimit="10" stroke-linejoin="round"/>
</svg>
