<svg width="22" height="24" viewBox="0 0 22 24" fill="none" xmlns="http://www.w3.org/2000/svg">
<path d="M0.75 21.2571V8.91428C0.75 8.48 0.843187 8.06857 1.02956 7.68C1.21594 7.29143 1.47275 6.97143 1.8 6.72L9.675 0.548571C10.1344 0.182857 10.6594 0 11.25 0C11.8406 0 12.3656 0.182857 12.825 0.548571L20.7 6.72C21.0281 6.97143 21.2854 7.29143 21.4717 7.68C21.6581 8.06857 21.7509 8.48 21.75 8.91428V21.2571C21.75 22.0114 21.4927 22.6574 20.9782 23.195C20.4637 23.7326 19.846 24.0009 19.125 24H15.1875C14.8156 24 14.5041 23.8683 14.253 23.605C14.0019 23.3417 13.8759 23.0162 13.875 22.6286V15.7714C13.875 15.3829 13.749 15.0574 13.497 14.795C13.245 14.5326 12.9335 14.4009 12.5625 14.4H9.9375C9.56562 14.4 9.25412 14.5317 9.003 14.795C8.75187 15.0583 8.62587 15.3838 8.625 15.7714V22.6286C8.625 23.0171 8.499 23.3431 8.247 23.6064C7.995 23.8697 7.6835 24.0009 7.3125 24H3.375C2.65312 24 2.03537 23.7317 1.52175 23.195C1.00812 22.6583 0.750875 22.0123 0.75 21.2571Z" fill="white"/>
</svg>
