<svg width="24" height="19" viewBox="0 0 24 19" fill="none" xmlns="http://www.w3.org/2000/svg">
<path d="M23.75 4.35417C23.75 3.6193 23.4673 2.91453 22.9641 2.3949C22.4608 1.87526 21.7783 1.58334 21.0667 1.58334H10.5303C10.3034 1.58406 10.0814 1.51517 9.8925 1.38542L8.56042 0.465604C8.11931 0.161017 7.60037 -0.00106705 7.06973 5.28658e-06H3.43333C2.72167 5.28658e-06 2.03915 0.291932 1.53593 0.811563C1.03271 1.3312 0.75 2.03597 0.75 2.77084V5.14584C0.75 5.25082 0.790387 5.3515 0.862276 5.42573C0.934165 5.49997 1.03167 5.54167 1.13333 5.54167H23.3667C23.4683 5.54167 23.5658 5.49997 23.6377 5.42573C23.7096 5.3515 23.75 5.25082 23.75 5.14584V4.35417ZM0.75 16.2292C0.75 16.964 1.03271 17.6688 1.53593 18.1884C2.03915 18.7081 2.72167 19 3.43333 19H21.0667C21.7783 19 22.4608 18.7081 22.9641 18.1884C23.4673 17.6688 23.75 16.964 23.75 16.2292V7.52084C23.75 7.41585 23.7096 7.31517 23.6377 7.24094C23.5658 7.16671 23.4683 7.125 23.3667 7.125H1.13333C1.03167 7.125 0.934165 7.16671 0.862276 7.24094C0.790387 7.31517 0.75 7.41585 0.75 7.52084V16.2292Z" fill="white"/>
</svg>
