<svg width="54" height="50" viewBox="0 0 54 50" fill="none" xmlns="http://www.w3.org/2000/svg">
<path d="M14.863 24.5768C13.262 21.0612 12.4615 17.0356 12.4615 12.5H4.15385V15.625C4.15385 17.3177 5.17608 19.0755 7.22055 20.8984C9.26502 22.7214 11.8125 23.9475 14.863 24.5768ZM49.8462 15.625V12.5H41.5385C41.5385 17.0356 40.738 21.0612 39.137 24.5768C42.1875 23.9475 44.735 22.7214 46.7794 20.8984C48.8239 19.0755 49.8462 17.3177 49.8462 15.625ZM54 11.4583V15.625C54 17.1658 53.5511 18.7174 52.6532 20.2799C51.7554 21.8424 50.5439 23.253 49.0186 24.5117C47.4934 25.7704 45.622 26.8283 43.4044 27.6855C41.1869 28.5428 38.8558 29.0256 36.4111 29.1341C35.5024 30.306 34.4748 31.3368 33.3281 32.2266C32.506 32.9644 31.9381 33.7511 31.6244 34.5866C31.3107 35.4221 31.1538 36.3932 31.1538 37.5C31.1538 38.6719 31.4838 39.6593 32.1436 40.4622C32.8035 41.2652 33.8582 41.6667 35.3077 41.6667C36.9303 41.6667 38.3744 42.1604 39.64 43.1478C40.9057 44.1352 41.5385 45.3776 41.5385 46.875V48.9583C41.5385 49.2621 41.4411 49.5117 41.2464 49.707C41.0517 49.9023 40.8029 50 40.5 50H13.5C13.1971 50 12.9483 49.9023 12.7536 49.707C12.5589 49.5117 12.4615 49.2621 12.4615 48.9583V46.875C12.4615 45.3776 13.0944 44.1352 14.36 43.1478C15.6256 42.1604 17.0697 41.6667 18.6923 41.6667C20.1418 41.6667 21.1965 41.2652 21.8564 40.4622C22.5162 39.6593 22.8462 38.6719 22.8462 37.5C22.8462 36.3932 22.6893 35.4221 22.3756 34.5866C22.0619 33.7511 21.494 32.9644 20.6719 32.2266C19.5252 31.3368 18.4976 30.306 17.5889 29.1341C15.1442 29.0256 12.8131 28.5428 10.5956 27.6855C8.37801 26.8283 6.50661 25.7704 4.98137 24.5117C3.45613 23.253 2.24459 21.8424 1.34675 20.2799C0.448918 18.7174 0 17.1658 0 15.625V11.4583C0 10.5903 0.302885 9.85243 0.908654 9.24479C1.51442 8.63715 2.25 8.33333 3.11538 8.33333H12.4615V5.20833C12.4615 3.77604 12.97 2.54991 13.9868 1.52995C15.0036 0.509983 16.226 0 17.6538 0H36.3462C37.774 0 38.9964 0.509983 40.0132 1.52995C41.03 2.54991 41.5385 3.77604 41.5385 5.20833V8.33333H50.8846C51.75 8.33333 52.4856 8.63715 53.0913 9.24479C53.6971 9.85243 54 10.5903 54 11.4583Z" fill="white"/>
</svg>
