<svg width="29" height="19" viewBox="0 0 29 19" fill="none" xmlns="http://www.w3.org/2000/svg">
<path d="M26.2466 3.36012C22.5483 -2.86449 16.9771 1.46605 16.9771 1.46605C16.6158 1.7458 15.9496 1.9758 15.4969 1.97687L14.0046 1.97794C13.5519 1.97848 12.8857 1.74847 12.5249 1.46872C12.5249 1.46872 6.95318 -2.86289 3.25438 3.36172C-0.443372 9.58419 1.0468 16.3608 1.0468 16.3608C1.30787 18.0201 2.16834 19.1273 3.79218 18.9882C5.41132 18.8497 8.92581 14.5197 8.92581 14.5197C9.21611 14.1629 9.8244 13.8714 10.276 13.8714L19.2223 13.8698C19.6745 13.8698 20.2822 14.1613 20.572 14.5181C20.572 14.5181 24.087 18.8481 25.7088 18.9866C27.3305 19.1257 28.1931 18.0174 28.4526 16.3592C28.4521 16.3592 29.9448 9.58366 26.2466 3.36012ZM11.3882 8.42667H9.46987V10.3207C9.46987 10.3207 9.06365 10.6385 8.435 10.6305C7.80739 10.6208 7.52335 10.2838 7.52335 10.2838V8.42721H5.71155C5.71155 8.42721 5.48546 8.18971 5.42489 7.56442C5.36537 6.93912 5.675 6.43364 5.675 6.43364H7.59384V4.46843C7.59384 4.46843 7.98857 4.25179 8.55613 4.26838C8.89633 4.27951 9.23093 4.36007 9.54036 4.50534L9.53252 6.43311H11.3443C11.3443 6.43311 11.6607 6.84926 11.6869 7.35206C11.713 7.8554 11.3882 8.42667 11.3882 8.42667ZM20.1872 10.5855C19.9878 10.5857 19.7904 10.5455 19.6061 10.4674C19.4219 10.3893 19.2545 10.2747 19.1136 10.1302C18.9727 9.9857 18.8609 9.81416 18.7848 9.62538C18.7087 9.43661 18.6696 9.2343 18.6699 9.03004C18.6693 8.8257 18.7082 8.62327 18.7842 8.43436C18.8603 8.24546 18.972 8.07381 19.113 7.92927C19.254 7.78473 19.4215 7.67015 19.6058 7.59212C19.7902 7.51408 19.9877 7.47413 20.1872 7.47456C20.3899 7.46911 20.5917 7.50531 20.7806 7.58103C20.9694 7.65676 21.1416 7.77046 21.2869 7.91544C21.4321 8.06042 21.5476 8.23373 21.6264 8.42517C21.7053 8.6166 21.7459 8.82227 21.7459 9.03004C21.7459 9.23781 21.7053 9.44348 21.6264 9.63491C21.5476 9.82634 21.4321 9.99966 21.2869 10.1446C21.1416 10.2896 20.9694 10.4033 20.7806 10.479C20.5917 10.5548 20.3899 10.591 20.1872 10.5855ZM20.1872 6.3058C19.9878 6.30601 19.7904 6.26594 19.6062 6.18786C19.422 6.10978 19.2546 5.99525 19.1136 5.85081C18.9727 5.70637 18.861 5.53486 18.7848 5.34612C18.7087 5.15737 18.6696 4.95509 18.6699 4.75085C18.6693 4.54652 18.7082 4.34408 18.7842 4.15518C18.8603 3.96627 18.972 3.79462 19.113 3.65008C19.254 3.50554 19.4215 3.39097 19.6058 3.31293C19.7902 3.2349 19.9877 3.19495 20.1872 3.19537C20.5899 3.19551 20.9761 3.35942 21.2609 3.65109C21.5457 3.94275 21.7058 4.33831 21.7061 4.75085C21.7057 5.16331 21.5455 5.55873 21.2607 5.85028C20.9759 6.14183 20.5898 6.30566 20.1872 6.3058ZM23.9685 8.60319C23.7691 8.6034 23.5716 8.5633 23.3874 8.4852C23.2031 8.40709 23.0357 8.2925 22.8948 8.14801C22.7538 8.00351 22.6421 7.83194 22.5659 7.64313C22.4898 7.45433 22.4508 7.25199 22.4512 7.04771C22.4508 6.84343 22.4898 6.64109 22.5659 6.45228C22.6421 6.26347 22.7538 6.0919 22.8948 5.94741C23.0357 5.80291 23.2031 5.68833 23.3874 5.61022C23.5716 5.53211 23.7691 5.49201 23.9685 5.49222C24.3712 5.49237 24.7574 5.65627 25.0422 5.94794C25.327 6.2396 25.4871 6.63516 25.4874 7.04771C25.4871 7.46025 25.327 7.85581 25.0422 8.14748C24.7574 8.43914 24.3712 8.60305 23.9685 8.60319Z" fill="white"/>
</svg>
