<svg width="60" height="60" viewBox="0 0 60 60" fill="none" xmlns="http://www.w3.org/2000/svg">
<path d="M37.7342 0H22.2631L20.4883 8.82818C19.0188 9.48289 17.6215 10.2872 16.3187 11.2282L7.73282 8.34L0 21.66L6.80565 27.6055C6.6413 29.1976 6.6413 30.8024 6.80565 32.3945L0 38.34L7.73556 51.66L16.3187 48.7745C17.6135 49.7073 19.007 50.5145 20.4883 51.1718L22.2631 60H37.7342L39.509 51.1718C40.9785 50.5171 42.3757 49.7128 43.6785 48.7718L52.2644 51.66L60 38.34L53.1916 32.3945C53.356 30.8024 53.356 29.1976 53.1916 27.6055L59.9973 21.66L52.2617 8.34L43.6813 11.2255C42.3784 10.2854 40.9811 9.48203 39.5117 8.82818L37.7342 0ZM29.9986 40.9091C27.0886 40.9091 24.2977 39.7597 22.2399 37.7139C20.1822 35.668 19.0262 32.8933 19.0262 30C19.0262 27.1067 20.1822 24.332 22.2399 22.2861C24.2977 20.2403 27.0886 19.0909 29.9986 19.0909C32.9087 19.0909 35.6996 20.2403 37.7573 22.2861C39.815 24.332 40.9711 27.1067 40.9711 30C40.9711 32.8933 39.815 35.668 37.7573 37.7139C35.6996 39.7597 32.9087 40.9091 29.9986 40.9091Z" fill="white"/>
</svg>
