<svg width="22" height="24" viewBox="0 0 22 24" fill="none" xmlns="http://www.w3.org/2000/svg">
<path d="M5.77842 19.3863L6.47802 20.4359H7.75199L8.45159 19.3863C7.57675 19.6267 6.65326 19.6267 5.77842 19.3863ZM6.6802 23.3478L7.115 24L7.54981 23.3478V21.3055H6.6802V23.3478ZM7.115 10.0006C4.71358 10.0006 2.76697 11.9472 2.76697 14.3486C2.76697 16.7501 4.71358 18.6967 7.115 18.6967C9.51642 18.6967 11.463 16.7501 11.463 14.3486C11.4604 11.9485 9.51512 10.0032 7.115 10.0006ZM10.5934 13.0442C10.7087 13.0442 10.8193 13.09 10.9009 13.1716C10.9824 13.2531 11.0282 13.3637 11.0282 13.479C11.0282 13.5943 10.9824 13.7049 10.9009 13.7865C10.8193 13.868 10.7087 13.9138 10.5934 13.9138C10.4781 13.9138 10.3675 13.868 10.286 13.7865C10.2044 13.7049 10.1586 13.5943 10.1586 13.479C10.1586 13.3637 10.2044 13.2531 10.286 13.1716C10.3675 13.09 10.4781 13.0442 10.5934 13.0442ZM3.63657 15.6531C3.52126 15.6531 3.41066 15.6072 3.32912 15.5257C3.24758 15.4442 3.20177 15.3336 3.20177 15.2182C3.20177 15.1029 3.24758 14.9923 3.32912 14.9108C3.41066 14.8292 3.52126 14.7834 3.63657 14.7834C3.75189 14.7834 3.86249 14.8292 3.94403 14.9108C4.02557 14.9923 4.07138 15.1029 4.07138 15.2182C4.07138 15.3336 4.02557 15.4442 3.94403 15.5257C3.86249 15.6072 3.75189 15.6531 3.63657 15.6531ZM3.63657 13.9138C3.52126 13.9138 3.41066 13.868 3.32912 13.7865C3.24758 13.7049 3.20177 13.5943 3.20177 13.479C3.20177 13.3637 3.24758 13.2531 3.32912 13.1716C3.41066 13.09 3.52126 13.0442 3.63657 13.0442C3.75189 13.0442 3.86249 13.09 3.94403 13.1716C4.02557 13.2531 4.07138 13.3637 4.07138 13.479C4.07138 13.5943 4.02557 13.7049 3.94403 13.7865C3.86249 13.868 3.75189 13.9138 3.63657 13.9138ZM5.37579 16.5227C5.26047 16.5227 5.14988 16.4769 5.06834 16.3953C4.9868 16.3138 4.94099 16.2032 4.94099 16.0879C4.94099 15.9725 4.9868 15.8619 5.06834 15.7804C5.14988 15.6989 5.26047 15.6531 5.37579 15.6531C5.49111 15.6531 5.6017 15.6989 5.68324 15.7804C5.76478 15.8619 5.81059 15.9725 5.81059 16.0879C5.81059 16.2032 5.76478 16.3138 5.68324 16.3953C5.6017 16.4769 5.49111 16.5227 5.37579 16.5227ZM5.37579 14.7834C5.26047 14.7834 5.14988 14.7376 5.06834 14.6561C4.9868 14.5745 4.94099 14.464 4.94099 14.3486C4.94099 14.2333 4.9868 14.1227 5.06834 14.0412C5.14988 13.9596 5.26047 13.9138 5.37579 13.9138C5.49111 13.9138 5.6017 13.9596 5.68324 14.0412C5.76478 14.1227 5.81059 14.2333 5.81059 14.3486C5.81059 14.464 5.76478 14.5745 5.68324 14.6561C5.6017 14.7376 5.49111 14.7834 5.37579 14.7834ZM5.37579 13.0442C5.26047 13.0442 5.14988 12.9984 5.06834 12.9169C4.9868 12.8353 4.94099 12.7247 4.94099 12.6094C4.94099 12.4941 4.9868 12.3835 5.06834 12.302C5.14988 12.2204 5.26047 12.1746 5.37579 12.1746C5.49111 12.1746 5.6017 12.2204 5.68324 12.302C5.76478 12.3835 5.81059 12.4941 5.81059 12.6094C5.81059 12.7247 5.76478 12.8353 5.68324 12.9169C5.6017 12.9984 5.49111 13.0442 5.37579 13.0442ZM7.115 17.3923C6.99969 17.3923 6.88909 17.3465 6.80755 17.2649C6.72601 17.1834 6.6802 17.0728 6.6802 16.9575C6.6802 16.8421 6.72601 16.7316 6.80755 16.65C6.88909 16.5685 6.99969 16.5227 7.115 16.5227C7.23032 16.5227 7.34091 16.5685 7.42246 16.65C7.504 16.7316 7.54981 16.8421 7.54981 16.9575C7.54981 17.0728 7.504 17.1834 7.42246 17.2649C7.34091 17.3465 7.23032 17.3923 7.115 17.3923ZM7.115 15.6531C6.99969 15.6531 6.88909 15.6072 6.80755 15.5257C6.72601 15.4442 6.6802 15.3336 6.6802 15.2182C6.6802 15.1029 6.72601 14.9923 6.80755 14.9108C6.88909 14.8292 6.99969 14.7834 7.115 14.7834C7.23032 14.7834 7.34091 14.8292 7.42246 14.9108C7.504 14.9923 7.54981 15.1029 7.54981 15.2182C7.54981 15.3336 7.504 15.4442 7.42246 15.5257C7.34091 15.6072 7.23032 15.6531 7.115 15.6531ZM7.115 13.9138C6.99969 13.9138 6.88909 13.868 6.80755 13.7865C6.72601 13.7049 6.6802 13.5943 6.6802 13.479C6.6802 13.3637 6.72601 13.2531 6.80755 13.1716C6.88909 13.09 6.99969 13.0442 7.115 13.0442C7.23032 13.0442 7.34091 13.09 7.42246 13.1716C7.504 13.2531 7.54981 13.3637 7.54981 13.479C7.54981 13.5943 7.504 13.7049 7.42246 13.7865C7.34091 13.868 7.23032 13.9138 7.115 13.9138ZM7.115 12.1746C6.99969 12.1746 6.88909 12.1288 6.80755 12.0473C6.72601 11.9657 6.6802 11.8551 6.6802 11.7398C6.6802 11.6245 6.72601 11.5139 6.80755 11.4324C6.88909 11.3508 6.99969 11.305 7.115 11.305C7.23032 11.305 7.34091 11.3508 7.42246 11.4324C7.504 11.5139 7.54981 11.6245 7.54981 11.7398C7.54981 11.8551 7.504 11.9657 7.42246 12.0473C7.34091 12.1288 7.23032 12.1746 7.115 12.1746ZM8.85422 16.5227C8.7389 16.5227 8.62831 16.4769 8.54676 16.3953C8.46522 16.3138 8.41941 16.2032 8.41941 16.0879C8.41941 15.9725 8.46522 15.8619 8.54676 15.7804C8.62831 15.6989 8.7389 15.6531 8.85422 15.6531C8.96953 15.6531 9.08013 15.6989 9.16167 15.7804C9.24321 15.8619 9.28902 15.9725 9.28902 16.0879C9.28902 16.2032 9.24321 16.3138 9.16167 16.3953C9.08013 16.4769 8.96953 16.5227 8.85422 16.5227ZM8.85422 14.7834C8.7389 14.7834 8.62831 14.7376 8.54676 14.6561C8.46522 14.5745 8.41941 14.464 8.41941 14.3486C8.41941 14.2333 8.46522 14.1227 8.54676 14.0412C8.62831 13.9596 8.7389 13.9138 8.85422 13.9138C8.96953 13.9138 9.08013 13.9596 9.16167 14.0412C9.24321 14.1227 9.28902 14.2333 9.28902 14.3486C9.28902 14.464 9.24321 14.5745 9.16167 14.6561C9.08013 14.7376 8.96953 14.7834 8.85422 14.7834ZM8.85422 13.0442C8.7389 13.0442 8.62831 12.9984 8.54676 12.9169C8.46522 12.8353 8.41941 12.7247 8.41941 12.6094C8.41941 12.4941 8.46522 12.3835 8.54676 12.302C8.62831 12.2204 8.7389 12.1746 8.85422 12.1746C8.96953 12.1746 9.08013 12.2204 9.16167 12.302C9.24321 12.3835 9.28902 12.4941 9.28902 12.6094C9.28902 12.7247 9.24321 12.8353 9.16167 12.9169C9.08013 12.9984 8.96953 13.0442 8.85422 13.0442ZM10.5934 15.6531C10.4781 15.6531 10.3675 15.6072 10.286 15.5257C10.2044 15.4442 10.1586 15.3336 10.1586 15.2182C10.1586 15.1029 10.2044 14.9923 10.286 14.9108C10.3675 14.8292 10.4781 14.7834 10.5934 14.7834C10.7087 14.7834 10.8193 14.8292 10.9009 14.9108C10.9824 14.9923 11.0282 15.1029 11.0282 15.2182C11.0282 15.3336 10.9824 15.4442 10.9009 15.5257C10.8193 15.6072 10.7087 15.6531 10.5934 15.6531ZM21.2318 0.278783C21.1217 0.159468 20.9803 0.0734958 20.8237 0.0306737C20.6671 -0.0121484 20.5016 -0.0100968 20.3461 0.0365946C20.1906 0.083286 20.0514 0.172737 19.9443 0.294745C19.8372 0.416753 19.7665 0.566405 19.7404 0.726632L18.9947 5.29208C19.3748 5.19756 19.7726 5.20055 20.1513 5.30078C20.3496 5.35643 20.5396 5.43731 20.7165 5.54166L21.4557 1.00273C21.4761 0.872976 21.4665 0.740277 21.4277 0.614795C21.3889 0.489314 21.3218 0.374376 21.2318 0.278783Z" fill="white"/>
<path d="M19.9256 6.14072C19.7247 6.08792 19.515 6.07738 19.3097 6.10977C19.1045 6.14217 18.9082 6.21679 18.7333 6.32893C18.5584 6.44106 18.4087 6.58827 18.2936 6.76124C18.1785 6.93421 18.1005 7.12919 18.0647 7.33383L17.7242 9.43002C17.6929 9.6236 17.6183 9.80762 17.5061 9.9684C17.3938 10.1292 17.2467 10.2626 17.0758 10.3587C16.9049 10.4548 16.7145 10.5111 16.5188 10.5235C16.3231 10.5358 16.1271 10.5039 15.9454 10.4301L6.05278 6.41683C5.03777 6.05117 3.92291 6.07701 2.92593 6.48931C1.92896 6.90161 1.12148 7.67075 0.661216 8.64651C-0.585366 11.4736 -0.0192518 15.6569 2.76697 17.2239C1.2182 14.8881 1.79127 11.7458 4.06529 10.1075C6.33931 8.46911 9.50077 8.91956 11.2265 11.1275C12.9527 13.3363 12.6253 16.513 10.486 18.3235C11.6435 18.2979 12.797 18.1791 13.9353 17.9683C16.4533 17.5035 19.5939 15.8434 20.1591 12.6924L20.9896 8.03995C21.0475 7.8454 21.0658 7.64121 21.0433 7.43947C21.0209 7.23773 20.9583 7.04254 20.859 6.86545C20.7598 6.68836 20.6261 6.53297 20.4658 6.40849C20.3054 6.28401 20.1218 6.19295 19.9256 6.14072ZM5.96495 7.7869C5.9217 7.89358 5.8379 7.97876 5.73194 8.02375C5.62598 8.06874 5.5065 8.06988 5.3997 8.02691C4.80378 7.8298 4.15664 7.85506 3.57789 8.09804C2.99915 8.34102 2.52792 8.78528 2.25129 9.34872C2.22817 9.40093 2.19498 9.44808 2.15364 9.48748C2.11229 9.52687 2.06359 9.55773 2.01031 9.57831C1.95704 9.59888 1.90023 9.60875 1.84314 9.60737C1.78605 9.60599 1.72979 9.59337 1.67757 9.57025C1.62535 9.54712 1.5782 9.51394 1.53881 9.47259C1.49942 9.43124 1.46855 9.38254 1.44798 9.32927C1.42741 9.27599 1.41753 9.21919 1.41892 9.16209C1.4203 9.105 1.43291 9.04874 1.45604 8.99652C1.82348 8.22662 2.46232 7.61954 3.24995 7.29181C4.03758 6.96408 4.9185 6.93879 5.72363 7.22078C5.77668 7.24207 5.82501 7.27361 5.86585 7.31359C5.9067 7.35358 5.93926 7.40122 5.96167 7.4538C5.98408 7.50638 5.99591 7.56287 5.99647 7.62002C5.99704 7.67718 5.98632 7.73388 5.96495 7.7869ZM13.7723 17.1139C13.6589 17.1348 13.5418 17.1097 13.4469 17.0443C13.3519 16.9789 13.2868 16.8784 13.266 16.765C13.2451 16.6516 13.2701 16.5345 13.3356 16.4395C13.401 16.3446 13.5015 16.2795 13.6149 16.2586C15.588 15.8947 18.0373 14.662 18.4451 12.3854C18.4655 12.2719 18.5301 12.1711 18.6248 12.1052C18.6716 12.0726 18.7245 12.0495 18.7803 12.0373C18.8361 12.0251 18.8937 12.024 18.9499 12.0341C19.0061 12.0441 19.0598 12.0652 19.1079 12.096C19.156 12.1268 19.1975 12.1668 19.2301 12.2137C19.2628 12.2606 19.2858 12.3134 19.298 12.3692C19.3102 12.425 19.3113 12.4827 19.3012 12.5389C18.8147 15.2529 16.0189 16.6995 13.7723 17.1139ZM8.20549 5.61026C8.1298 5.61019 8.05543 5.59036 7.98975 5.55273C7.92407 5.5151 7.86936 5.46097 7.83101 5.3957C7.79267 5.33044 7.77203 5.25629 7.77114 5.1806C7.77024 5.10491 7.78912 5.0303 7.82591 4.96414L9.99993 1.0509C10.0277 1.00099 10.065 0.957043 10.1097 0.921556C10.1545 0.88607 10.2057 0.859742 10.2607 0.844076C10.3156 0.828411 10.373 0.823714 10.4297 0.830254C10.4865 0.836794 10.5414 0.854443 10.5913 0.882194C10.6412 0.909944 10.6851 0.947252 10.7206 0.991988C10.7561 1.03672 10.7824 1.08801 10.7981 1.14292C10.8137 1.19783 10.8184 1.25529 10.8119 1.31202C10.8054 1.36874 10.7877 1.42362 10.76 1.47353L8.58594 5.38677C8.54824 5.45458 8.49307 5.51107 8.42617 5.55036C8.35927 5.58966 8.28308 5.61034 8.20549 5.61026Z" fill="white"/>
<path d="M10.8157 6.48122C10.74 6.48115 10.6657 6.46131 10.6 6.42368C10.5343 6.38605 10.4796 6.33193 10.4413 6.26666C10.4029 6.20139 10.3823 6.12725 10.3814 6.05156C10.3805 5.97587 10.3994 5.90125 10.4362 5.8351L13.5537 0.223506C13.6097 0.122719 13.7035 0.0483229 13.8144 0.0166847C13.9253 -0.0149535 14.0442 -0.0012423 14.145 0.054802C14.2458 0.110846 14.3202 0.204633 14.3518 0.31553C14.3835 0.426426 14.3698 0.545349 14.3137 0.646137L11.1962 6.25773C11.1585 6.32554 11.1033 6.38202 11.0364 6.42132C10.9695 6.46062 10.8933 6.4813 10.8157 6.48122ZM13.4246 7.35083C13.3489 7.35076 13.2745 7.33092 13.2088 7.29329C13.1431 7.25566 13.0884 7.20154 13.0501 7.13627C13.0117 7.071 12.9911 6.99686 12.9902 6.92117C12.9893 6.84548 13.0082 6.77086 13.045 6.70471L14.5629 3.97283C14.6201 3.8745 14.7137 3.80255 14.8234 3.7724C14.9331 3.74225 15.0503 3.75631 15.1497 3.81156C15.2492 3.86681 15.323 3.95886 15.3554 4.06794C15.3878 4.17702 15.3761 4.29445 15.3229 4.39502L13.805 7.12734C13.7673 7.19515 13.7121 7.25163 13.6452 7.29093C13.5783 7.33023 13.5021 7.35091 13.4246 7.35083Z" fill="white"/>
</svg>
