<svg width="19" height="19" viewBox="0 0 19 19" fill="none" xmlns="http://www.w3.org/2000/svg">
<path fill-rule="evenodd" clip-rule="evenodd" d="M4.92682 12.8089C8.04679 12.3531 10.195 12.3923 13.3191 12.8248C13.5453 12.8576 13.752 12.9712 13.9011 13.1445C14.0501 13.3179 14.1314 13.5393 14.1299 13.7679C14.1299 13.9867 14.0547 14.1991 13.9189 14.365C13.6821 14.6543 13.4396 14.9387 13.1914 15.2183H14.3952C14.4709 15.128 14.547 15.0359 14.624 14.9425C14.8944 14.611 15.0419 14.1962 15.0415 13.7684C15.0415 12.8454 14.3679 12.05 13.4439 11.9224C10.246 11.4798 8.01078 11.4374 4.7951 11.9073C3.86161 12.0436 3.19067 12.8513 3.19067 13.7807C3.19067 14.1932 3.32514 14.6011 3.57993 14.9316C3.65514 15.0291 3.72943 15.1248 3.80327 15.2187H4.97787C4.74698 14.9423 4.52176 14.6611 4.30238 14.3755C4.172 14.2045 4.10167 13.9952 4.10228 13.7802C4.10228 13.2893 4.45507 12.8777 4.92682 12.8089ZM9.1161 8.38123C9.47524 8.38123 9.83087 8.31049 10.1627 8.17306C10.4945 8.03562 10.796 7.83417 11.0499 7.58022C11.3039 7.32627 11.5053 7.02479 11.6427 6.69299C11.7802 6.36118 11.8509 6.00556 11.8509 5.64642C11.8509 5.28728 11.7802 4.93165 11.6427 4.59985C11.5053 4.26805 11.3039 3.96656 11.0499 3.71261C10.796 3.45866 10.4945 3.25722 10.1627 3.11978C9.83087 2.98234 9.47524 2.9116 9.1161 2.9116C8.39079 2.9116 7.69517 3.19974 7.1823 3.71261C6.66942 4.22549 6.38129 4.9211 6.38129 5.64642C6.38129 6.37174 6.66942 7.06735 7.1823 7.58022C7.69517 8.0931 8.39079 8.38123 9.1161 8.38123ZM9.1161 9.29284C10.0832 9.29284 11.0107 8.90866 11.6945 8.22482C12.3783 7.54099 12.7625 6.61351 12.7625 5.64642C12.7625 4.67933 12.3783 3.75185 11.6945 3.06801C11.0107 2.38417 10.0832 2 9.1161 2C8.14901 2 7.22153 2.38417 6.5377 3.06801C5.85386 3.75185 5.46969 4.67933 5.46969 5.64642C5.46969 6.61351 5.85386 7.54099 6.5377 8.22482C7.22153 8.90866 8.14901 9.29284 9.1161 9.29284Z" fill="#8F8F8F"/>
<path fill-rule="evenodd" clip-rule="evenodd" d="M9.11604 17.3205C13.6472 17.3205 17.3205 13.6472 17.3205 9.11604C17.3205 4.58492 13.6472 0.911605 9.11604 0.911605C4.58492 0.911605 0.911605 4.58492 0.911605 9.11604C0.911605 13.6472 4.58492 17.3205 9.11604 17.3205ZM9.11604 18.2321C14.1508 18.2321 18.2321 14.1508 18.2321 9.11604C18.2321 4.08125 14.1508 0 9.11604 0C4.08125 0 0 4.08125 0 9.11604C0 14.1508 4.08125 18.2321 9.11604 18.2321Z" fill="#E5E5E5"/>
</svg>
